<?xml version="1.0" encoding="UTF-8"?>
<svg width="420" height="500" viewBox="-210 -210 420 500"
	xmlns="http://www.w3.org/2000/svg"
	xmlns:xlink="http://www.w3.org/1999/xlink">
	<title>五行</title>
	<!-- 此字型為全字庫正楷體，中華民國國家發展委員會，CNS11643中文標準交換碼全字庫網站，https://www.cns11643.gov.tw/。 -->
	<style type="text/css">
		circle {
			stroke      : #000;
			stroke-width: 1;
		}
	</style>
	<defs>
		<linearGradient gradientUnits="objectBoundingBox" gradientTransform="rotate(45 .5 .5)" id="grwood">
			<stop stop-color="#4eb" offset="0.1"/>
			<stop stop-color="#bfe" offset="0.5"/>
			<stop stop-color="#5cf" offset="0.9"/>
		</linearGradient>
		<linearGradient gradientUnits="objectBoundingBox" gradientTransform="rotate(45 .5 .5)" id="grfire">
			<stop stop-color="#f13" offset="0.1"/>
			<stop stop-color="#fa3" offset="0.5"/>
			<stop stop-color="#f73" offset="0.9"/>
		</linearGradient>
		<linearGradient gradientUnits="objectBoundingBox" gradientTransform="rotate(45 .5 .5)" id="grearth">
			<stop stop-color="#fc0" offset="0.1"/>
			<stop stop-color="#ff0" offset="0.5"/>
			<stop stop-color="#fb0" offset="0.9"/>
		</linearGradient>
		<linearGradient gradientUnits="objectBoundingBox" gradientTransform="rotate(45 .5 .5)" id="grmetal">
			<stop stop-color="#dff" offset="0.1"/>
			<stop stop-color="#fff" offset="0.5"/>
			<stop stop-color="#ddd" offset="0.9"/>
		</linearGradient>
		<linearGradient gradientUnits="objectBoundingBox" gradientTransform="rotate(45 .5 .5)" id="grwater">
			<stop stop-color="#000" offset="0.1"/>
			<stop stop-color="#777" offset="0.5"/>
			<stop stop-color="#003" offset="0.9"/>
		</linearGradient>
		<clipPath id="cp">
			<rect x="0" y="-210" width="210" height="210" />
		</clipPath>
	</defs>
	<circle fill="url(#grwood)" cx="0" cy="-150" r="50"/>
	<circle fill="url(#grfire)" cx="142.658" cy="-46.353" r="50"/>
	<circle fill="url(#grearth)" cx="88.168" cy="121.353" r="50"/>
	<circle fill="url(#grmetal)" cx="-88.168" cy="121.353" r="50"/>
	<circle fill="url(#grwater)" cx="-142.658" cy="-46.353" r="50"/>
	<g id="a">
		<path transform="rotate(-2)" d="M37.982,152.336A157,157 0 0,1 -37.982,152.336L-39.433,158.158A163,163 0 0,0 39.433,158.158z"/>
		<path transform="rotate(13)" d="M8,154V166L-8,160z"/>
		<path fill="#fff" stroke="#000" stroke-width="1" d="M-88,-43H74V-46L88,-40L74,-34V-37H-88z"/>
	</g>
	<use xlink:href="#a" transform="rotate(72)"/>
	<use xlink:href="#a" transform="rotate(144)"/>
	<use xlink:href="#a" transform="rotate(-144)"/>
	<use xlink:href="#a" transform="rotate(-72)"/>
	<use xlink:href="#a" clip-path="url(#cp)"/>
	<rect x="-180" y="200" width="360" height="2" fill="#000"/>
	<path stroke="#000" stroke-width="1" d="M-160,227H-70V224L-56,230L-70,236V233H-160z" id="c"/>
	<use fill="#fff" xlink:href="#c" transform="translate(0,40)"/>

	<path transform="translate(-50,-200)" d="M44.3 23.3 C44.2 23.7,44.3 24.2,44.9 25.5 L45.7 27.1 45.8 33.5 L45.8 40.0 45.3 40.1 C44.2 40.3,33.4 41.6,30.7 41.8 C28.4 42.0,27.9 42.1,27.8 42.4 C27.4 43.1,28.1 43.8,29.6 44.5 C31.4 45.3,33.1 45.4,36.4 44.7 C38.8 44.2,43.8 43.4,44.6 43.4 C45.0 43.4,45.0 43.4,44.6 44.4 C43.7 46.8,39.2 52.7,35.2 56.8 C34.0 58.0,32.4 59.5,29.1 62.3 C27.7 63.5,24.5 65.8,22.5 67.2 C20.8 68.3,20.4 68.7,20.4 69.2 C20.4 70.2,24.6 69.1,28.9 67.0 C30.9 65.9,33.9 64.0,35.9 62.4 C38.3 60.5,42.4 56.4,44.0 54.3 C44.8 53.3,45.6 52.4,45.7 52.4 C45.9 52.4,45.7 58.9,45.3 63.2 C45.1 65.0,44.8 67.5,44.5 68.7 C44.2 69.9,43.9 71.3,43.9 71.8 C43.6 73.8,44.6 77.0,45.7 78.3 C46.2 78.7,46.4 78.8,47.2 78.8 C48.3 78.8,48.7 78.5,49.6 76.9 C50.6 75.1,50.8 73.6,50.6 69.3 C50.4 65.7,50.6 50.1,50.9 49.9 C50.9 49.8,51.7 50.8,52.5 52.1 C56.7 58.6,61.0 64.2,62.8 65.9 C64.2 67.1,65.2 67.4,68.6 67.4 C70.9 67.4,78.0 66.7,79.8 66.3 C80.3 66.2,80.4 65.4,79.9 65.0 C79.8 64.9,78.1 64.2,76.1 63.4 C72.1 61.8,69.7 60.6,67.4 59.2 C64.7 57.6,61.4 55.0,58.7 52.6 C58.3 52.2,56.4 50.2,54.4 48.1 C52.5 46.0,50.8 44.3,50.8 44.2 C50.5 44.1,50.6 42.6,50.9 42.6 C51.0 42.6,52.5 42.5,54.1 42.3 C55.8 42.2,59.4 41.9,62.2 41.8 C65.0 41.7,67.6 41.5,67.9 41.5 C68.8 41.4,69.1 40.8,68.8 40.1 C68.5 39.4,68.0 38.9,66.6 38.2 C65.6 37.8,65.3 37.7,63.5 37.7 C62.3 37.7,59.4 38.0,56.2 38.5 C53.3 39.0,50.9 39.3,50.8 39.3 C50.7 39.2,50.9 32.9,51.2 30.6 C51.3 29.4,51.6 28.1,51.9 27.3 C52.5 25.6,52.5 25.2,51.8 24.4 C50.8 23.4,49.2 22.9,46.7 22.8 L44.4 22.8 44.3 23.3 "/>
	<path transform="translate(92.658,-96.353)" d="M40.9 22.6 C40.6 23.2,40.6 23.5,41.3 24.6 C42.4 26.3,42.5 27.1,42.5 34.4 C42.4 45.8,41.6 51.0,39.0 56.2 C37.5 59.1,36.6 60.4,34.4 62.6 C31.4 65.5,28.8 67.4,24.3 69.6 C22.1 70.7,21.8 70.9,21.8 71.3 C21.8 71.8,21.9 71.8,23.2 71.8 C26.6 71.8,33.3 69.2,36.8 66.6 C38.5 65.4,41.3 62.4,42.3 60.9 C43.7 58.8,45.3 55.4,45.8 53.6 C46.5 50.9,46.4 50.9,47.8 53.4 C50.9 59.1,56.4 66.7,59.7 70.1 C61.6 72.1,62.8 72.4,67.3 72.4 C70.1 72.4,76.9 71.8,77.4 71.5 C77.7 71.3,77.7 70.5,77.4 70.2 C77.2 70.1,75.9 69.6,74.5 69.0 C64.3 65.0,58.4 60.7,51.6 52.2 C48.0 47.7,48.0 48.5,51.6 46.4 C55.0 44.5,58.5 42.0,61.1 40.0 C62.3 39.0,63.9 38.0,64.5 37.7 C65.2 37.4,66.0 37.0,66.4 36.9 C66.7 36.7,67.0 36.5,67.0 36.2 C67.0 35.5,65.8 34.1,64.4 33.1 C62.6 31.9,61.8 31.6,60.2 31.6 C58.9 31.6,58.8 31.6,58.6 32.1 C58.5 32.5,58.4 33.1,58.3 33.6 C58.2 34.2,57.9 35.0,57.7 35.5 C56.9 36.9,54.6 39.8,52.2 42.1 C50.3 44.0,47.6 46.3,47.4 46.1 C47.4 46.1,47.5 45.5,47.6 44.8 C47.9 42.9,48.4 37.3,48.6 33.1 C48.8 29.0,49.0 27.6,49.7 25.9 C50.3 24.5,50.2 24.0,49.0 23.4 C47.5 22.6,46.3 22.4,43.8 22.3 C41.2 22.1,41.2 22.1,40.9 22.6 M27.7 37.1 C27.4 37.5,27.7 38.3,29.0 40.9 C30.8 44.6,32.6 47.4,33.4 48.0 C33.9 48.3,34.3 48.4,35.1 48.4 C36.1 48.4,36.3 48.3,36.8 47.8 C37.3 47.3,37.4 47.1,37.4 45.9 C37.4 42.0,35.9 39.6,32.4 37.9 C30.8 37.1,30.4 37.0,29.2 37.0 C28.5 37.0,27.8 37.1,27.7 37.1 "/>
	<path transform="translate(38.168,71.353)" d="M44.3 26.5 C43.9 27.0,43.9 27.1,44.7 28.5 C46.0 31.2,46.0 31.3,46.1 39.5 L46.2 47.0 45.8 47.1 C45.3 47.2,39.2 47.9,35.4 48.4 C33.6 48.6,33.2 48.8,33.7 49.5 C34.5 50.8,36.9 51.3,41.2 51.1 C42.8 51.0,44.6 50.9,45.2 50.9 L46.3 50.7 46.1 58.2 C46.1 62.3,46.0 65.7,46.0 65.7 C45.7 66.0,31.9 67.4,26.1 67.7 C24.1 67.9,23.4 68.1,23.4 68.6 C23.4 69.0,24.7 70.3,25.9 70.9 C27.1 71.6,27.4 71.7,29.2 71.7 C30.8 71.8,31.7 71.7,34.2 71.2 C44.0 69.3,54.6 68.4,68.3 68.4 C75.5 68.4,76.0 68.4,76.4 68.0 C76.8 67.7,76.9 67.6,76.6 67.0 C75.9 65.4,72.1 63.4,69.6 63.4 C69.0 63.4,66.8 63.6,64.7 63.9 C60.6 64.4,51.6 65.3,51.5 65.2 C51.4 64.9,51.8 50.3,52.0 50.2 C52.1 50.1,53.1 50.0,54.2 49.8 C56.8 49.5,62.6 48.5,64.0 48.1 C65.5 47.7,66.0 47.2,65.6 46.5 C65.2 45.9,64.2 45.2,63.1 44.8 C61.5 44.2,59.6 44.3,56.6 45.1 C55.1 45.5,53.4 45.8,52.8 45.9 L51.8 46.0 51.9 44.5 C51.9 43.6,52.0 41.4,52.1 39.7 C52.2 35.7,52.8 32.2,53.5 30.7 C53.8 30.1,54.0 29.4,54.0 29.3 C54.0 28.7,53.1 27.9,51.5 27.2 C49.6 26.3,48.3 26.0,46.2 26.0 C44.7 26.0,44.6 26.0,44.3 26.5 "/>
	<path transform="translate(-138.168,71.353)" d="M45.6 24.9 C45.5 25.2,45.4 25.9,45.4 26.5 C45.4 27.6,44.8 29.7,44.0 31.2 C43.2 32.7,39.7 37.8,37.9 40.0 C34.1 44.8,26.8 51.5,22.1 54.6 C21.0 55.4,20.5 55.8,20.4 56.2 C20.4 56.6,20.4 56.6,21.5 56.6 C22.9 56.6,24.6 56.0,26.9 54.8 C34.5 50.7,40.3 45.2,47.1 35.8 C48.9 33.2,49.3 32.7,49.6 32.8 C50.4 33.2,53.8 37.4,60.8 46.6 C64.0 50.9,65.2 52.1,66.6 52.5 C69.0 53.2,78.8 52.5,79.8 51.5 C79.9 51.4,80.0 51.1,79.8 50.8 C79.7 50.5,78.9 50.1,76.2 49.0 C71.6 47.1,69.5 46.1,67.0 44.3 C64.2 42.3,63.1 41.3,58.1 36.4 C55.7 34.0,53.6 32.0,53.5 31.9 C53.4 31.8,52.8 31.3,52.2 30.9 C51.6 30.5,51.1 30.1,51.0 30.1 C51.0 30.0,51.3 29.7,51.7 29.2 L52.4 28.5 52.1 27.8 C51.7 27.1,49.3 24.9,48.5 24.6 C48.2 24.5,47.5 24.4,46.9 24.4 C45.9 24.4,45.8 24.4,45.6 24.9 M50.5 45.4 C49.5 45.6,46.5 46.1,43.8 46.6 C37.5 47.7,37.1 47.8,37.0 48.3 C36.9 49.6,40.7 50.6,43.4 50.0 C44.2 49.8,44.5 49.8,44.6 50.0 C45.0 50.7,45.2 51.8,45.3 53.9 L45.4 56.1 44.3 56.3 C41.3 56.6,33.4 57.4,32.8 57.4 C32.1 57.4,32.0 57.5,31.9 57.9 C31.7 58.6,32.4 59.3,33.9 59.8 C35.5 60.4,38.0 60.3,41.7 59.7 C43.3 59.4,44.8 59.2,45.0 59.2 C45.4 59.2,45.4 59.6,45.4 66.1 C45.4 72.5,45.4 73.0,45.1 73.0 C44.3 73.0,36.5 73.6,33.5 73.9 C31.8 74.1,29.7 74.2,29.0 74.2 C27.2 74.2,26.4 74.4,26.2 74.8 C25.9 75.4,26.6 76.1,28.5 77.0 L30.1 77.8 32.1 77.7 C33.2 77.7,35.3 77.4,36.7 77.1 C38.1 76.9,40.2 76.5,41.3 76.4 C45.4 76.0,55.3 75.4,61.9 75.2 C69.2 75.0,70.2 74.9,70.4 74.1 C70.5 73.4,69.3 72.5,67.6 71.8 C65.8 71.0,64.3 70.8,62.4 71.3 C60.8 71.6,56.8 72.1,53.7 72.3 C52.7 72.4,51.6 72.5,51.2 72.5 L50.5 72.6 50.7 65.7 C50.7 61.9,50.8 58.7,50.8 58.7 C50.9 58.7,53.3 58.5,56.3 58.4 C60.7 58.2,61.8 58.1,62.4 57.8 C62.8 57.7,63.1 57.4,63.2 57.2 C63.3 56.8,61.7 55.5,60.5 55.0 C58.6 54.3,57.3 54.3,54.2 54.9 C52.8 55.2,51.5 55.4,51.3 55.4 C50.9 55.4,50.9 54.0,51.3 52.1 C51.7 50.4,51.6 49.8,50.8 49.3 L50.2 48.8 50.9 48.7 C51.4 48.7,53.1 48.5,54.8 48.4 C57.7 48.2,59.0 47.9,59.0 47.4 C59.0 47.0,58.1 46.2,57.0 45.6 C55.9 45.1,55.6 45.0,54.0 45.0 C53.1 45.0,51.5 45.2,50.5 45.4 M57.2 60.8 C57.1 61.1,56.9 61.8,56.8 62.3 C56.6 63.4,55.2 65.6,53.1 68.2 C51.5 70.3,51.2 70.8,51.6 71.0 C52.2 71.4,53.1 71.2,54.9 70.1 C58.0 68.3,61.8 66.3,62.9 66.0 C63.9 65.7,63.9 65.6,63.9 64.9 C63.8 63.9,62.8 62.6,61.2 61.5 C60.0 60.7,59.6 60.5,58.6 60.4 C57.5 60.4,57.4 60.4,57.2 60.8 M33.2 63.6 C32.9 64.1,33.2 64.6,36.3 68.5 C38.6 71.4,39.3 72.0,40.7 72.0 C41.5 72.0,41.7 71.9,42.2 71.4 C43.8 69.9,43.4 66.6,41.5 65.4 C40.2 64.6,35.5 63.2,34.0 63.2 C33.6 63.2,33.3 63.3,33.2 63.6 "/>
	<path fill="#fff" transform="translate(-192.658,-96.353)" d="M44.4 23.0 C43.9 23.5,43.9 23.6,44.4 25.2 C45.2 27.7,45.3 30.5,45.3 41.7 C45.2 53.2,44.9 66.1,44.6 67.1 C44.5 67.5,44.3 67.8,43.9 68.0 C43.4 68.2,43.0 68.2,40.8 67.7 C39.4 67.4,37.9 67.2,37.5 67.2 C36.1 67.3,36.4 67.8,38.8 69.8 C40.0 70.8,41.6 72.4,42.4 73.3 C43.2 74.2,44.3 75.4,44.8 75.8 C45.5 76.5,45.8 76.6,46.6 76.6 C47.5 76.6,47.6 76.5,48.2 75.9 C48.5 75.4,49.0 74.5,49.4 73.9 C50.6 71.4,50.6 71.3,50.5 60.6 C50.4 54.7,50.4 50.8,50.5 50.8 C50.6 50.8,52.1 52.5,53.7 54.7 C57.3 59.2,62.3 64.6,63.5 65.3 C64.8 66.1,66.5 66.2,70.6 66.0 C74.4 65.8,75.9 65.6,78.2 65.0 C79.8 64.6,80.1 64.4,79.9 63.9 C79.8 63.6,79.1 63.2,76.1 62.2 C73.0 61.1,67.7 58.8,65.1 57.4 C60.7 54.9,57.5 52.5,53.4 48.5 L51.4 46.5 54.1 45.0 C58.6 42.7,59.4 42.1,62.5 39.8 C64.0 38.7,66.0 37.4,66.9 37.0 C67.7 36.5,68.5 36.0,68.5 35.9 C68.7 35.4,68.2 34.4,67.3 33.8 C65.4 32.5,63.0 31.6,61.3 31.6 C60.6 31.6,60.1 32.2,59.9 33.3 C59.7 34.4,59.0 35.6,57.3 37.8 C55.6 39.8,51.1 44.4,50.7 44.4 C50.4 44.4,50.4 44.2,50.5 43.3 C50.5 42.6,50.7 40.3,50.8 38.0 C51.1 32.7,51.3 31.3,52.0 29.2 C52.9 26.8,52.9 26.4,52.4 25.6 C51.8 24.8,50.8 24.2,48.4 23.3 C46.3 22.5,45.0 22.4,44.4 23.0 M37.2 40.2 C35.2 41.0,30.8 41.9,27.3 42.3 C25.8 42.5,24.1 42.7,23.7 42.7 C22.9 42.8,22.8 42.9,22.8 43.4 C22.8 43.9,23.0 44.1,23.9 44.7 C25.1 45.5,26.5 45.9,28.0 45.7 C28.6 45.6,30.7 45.2,32.6 44.7 C36.9 43.5,36.9 43.5,36.8 44.3 C36.7 45.8,33.4 51.4,30.3 55.5 C28.5 57.9,24.2 62.1,20.9 64.7 C19.1 66.1,19.0 66.4,20.7 66.4 C23.7 66.4,29.0 63.5,32.5 59.9 C35.6 56.8,36.9 55.0,41.3 47.8 C41.8 46.9,42.7 45.7,43.4 45.1 C44.1 44.4,44.6 43.8,44.6 43.6 C44.6 43.0,42.6 40.8,41.2 39.9 C40.4 39.4,38.9 39.5,37.2 40.2 "/>

	<path transform="translate(-65,200)" d="M32.6 13.9 C32.3 14.1,32.4 14.7,32.7 15.8 C33.0 16.7,33.0 16.8,33.1 20.2 L33.1 23.7 32.8 23.8 C32.0 24.0,29.2 24.4,27.6 24.5 C26.7 24.7,26.0 24.8,25.9 24.9 C25.6 25.4,26.2 25.9,27.3 26.2 C28.0 26.3,29.6 26.3,31.7 26.1 L32.5 26.0 32.3 26.6 C32.0 27.3,30.6 29.7,29.7 31.1 C28.5 32.9,26.0 35.6,24.1 37.1 C23.0 38.0,22.9 38.2,23.0 38.5 C23.1 38.8,23.8 38.7,25.0 38.1 C28.0 36.8,29.8 35.3,31.8 32.5 C32.7 31.3,32.9 31.1,32.8 31.6 C32.8 31.8,32.7 32.8,32.7 33.7 C32.6 35.8,32.1 40.6,31.9 41.5 C31.5 42.8,31.5 43.0,31.8 44.0 C32.1 45.0,32.5 45.9,32.9 46.1 C33.0 46.1,33.3 46.2,33.6 46.2 C34.1 46.2,34.2 46.1,34.5 45.8 C35.1 45.0,35.2 44.8,35.3 37.7 C35.4 34.2,35.5 31.2,35.5 31.2 C35.6 31.1,35.9 31.4,36.2 31.8 C36.5 32.2,37.1 32.8,37.4 33.1 C37.8 33.6,38.0 33.6,38.5 33.7 C39.3 33.8,39.7 33.7,39.9 33.3 C40.1 33.0,40.0 31.9,39.8 31.5 C39.4 30.6,37.7 29.5,36.2 29.1 C35.4 28.9,35.5 29.0,35.6 26.7 L35.7 25.5 36.5 25.3 C37.8 25.1,40.0 24.6,40.4 24.4 C40.8 24.2,40.8 23.8,40.4 23.4 C39.7 22.7,37.9 22.5,36.6 22.9 C36.2 23.0,35.8 23.1,35.8 23.1 C35.7 23.0,36.1 18.1,36.3 17.3 C36.4 16.9,36.5 16.3,36.6 16.0 C36.6 15.5,36.6 15.4,36.2 15.0 C35.5 14.3,34.2 13.7,33.4 13.7 C33.0 13.7,32.7 13.7,32.6 13.9 M77.2 14.7 C77.0 15.0,77.0 15.3,77.3 16.5 C77.6 17.5,78.0 19.3,78.2 20.1 C78.3 20.6,78.0 25.4,77.9 25.7 C77.8 25.8,77.1 26.0,75.0 26.2 C73.5 26.4,72.3 26.6,72.3 26.6 C72.2 26.5,73.6 23.7,74.0 23.0 L74.6 22.2 74.3 21.6 C73.8 20.7,72.7 19.9,71.6 19.8 C70.8 19.8,70.7 19.9,70.5 21.3 C70.3 24.1,68.4 29.1,66.2 32.4 C65.8 33.0,65.5 33.5,65.5 33.6 C65.5 33.7,65.8 33.7,66.2 33.7 C66.8 33.7,66.9 33.7,67.7 32.9 C68.7 32.0,70.0 30.4,70.8 29.1 L71.3 28.2 73.8 28.1 C75.2 28.1,76.6 28.1,77.1 28.0 L77.9 27.9 77.9 30.9 L77.9 33.8 76.6 34.0 C73.8 34.3,71.8 34.6,71.6 34.6 C71.3 34.7,71.2 35.1,71.5 35.4 C71.9 36.1,73.2 36.3,76.5 36.1 L77.9 36.0 77.8 39.0 C77.8 40.7,77.7 42.1,77.7 42.1 C77.6 42.2,71.4 42.8,67.9 43.0 C65.6 43.2,63.7 43.3,63.7 43.4 C63.6 43.4,63.6 43.5,63.6 43.6 C63.4 44.0,64.0 44.6,64.7 45.0 C65.7 45.5,66.7 45.5,69.6 45.0 C75.2 44.0,75.9 43.9,92.5 43.6 C93.8 43.6,95.0 43.6,95.1 43.5 C95.4 43.4,95.3 42.8,95.0 42.3 C94.8 42.1,94.4 41.8,93.8 41.5 C93.0 41.0,92.8 41.0,91.8 40.9 C91.1 40.9,90.3 41.0,89.3 41.1 C87.2 41.5,82.2 42.0,80.9 42.0 C80.7 42.0,80.7 41.6,80.8 39.0 C80.8 37.4,80.9 36.0,80.9 35.9 C80.9 35.7,81.3 35.6,83.1 35.5 C86.4 35.2,87.5 35.0,87.8 34.7 C88.1 34.4,88.0 33.9,87.5 33.7 C86.7 33.1,84.0 33.0,82.2 33.3 C81.6 33.4,81.1 33.5,81.0 33.5 C80.9 33.5,80.9 33.2,80.9 31.1 C81.0 29.8,81.0 28.5,81.1 28.1 L81.1 27.5 83.7 27.1 C88.2 26.4,89.3 26.2,89.4 25.7 C89.4 25.4,88.9 24.8,88.3 24.5 C88.0 24.4,87.4 24.3,86.8 24.3 C86.0 24.2,85.6 24.3,83.7 24.7 C82.5 25.0,81.4 25.2,81.3 25.2 C81.1 25.2,81.1 25.1,81.2 24.6 C81.2 24.2,81.3 23.3,81.3 22.4 C81.4 20.1,81.7 18.6,82.1 17.6 C82.5 16.7,82.5 16.7,82.2 16.1 C81.9 15.5,81.2 15.1,80.0 14.8 C79.0 14.5,77.5 14.4,77.2 14.7 M50.3 19.7 C49.7 20.0,48.2 20.3,45.9 20.8 C44.0 21.2,43.9 21.2,43.3 21.0 C42.4 20.8,41.6 20.8,41.3 21.1 C41.1 21.3,41.1 21.6,41.4 22.3 C41.9 23.5,42.0 24.7,41.9 29.3 C41.9 33.5,41.6 36.7,41.2 38.9 C40.9 40.7,41.1 41.6,41.9 42.5 C42.3 42.9,42.4 43.0,42.8 43.0 C43.4 43.0,43.7 42.7,43.8 42.0 L43.8 41.4 44.6 41.3 C45.0 41.3,46.1 41.2,47.1 41.2 C48.1 41.1,49.2 41.0,49.6 41.0 L50.3 40.9 50.9 42.3 L51.6 43.7 52.3 43.8 L53.1 43.8 53.7 43.2 C54.6 42.3,55.0 41.3,55.1 40.3 C55.1 39.8,55.0 38.2,54.8 36.6 C54.4 33.6,54.4 32.2,54.5 27.1 C54.6 24.1,54.7 23.6,55.2 22.5 C55.4 22.0,55.4 21.8,55.4 21.6 C55.2 21.2,53.7 20.0,53.1 19.7 C52.4 19.4,51.1 19.4,50.3 19.7 M51.2 22.1 C51.4 22.3,51.4 22.4,51.5 24.5 L51.5 26.8 50.6 26.7 C49.8 26.6,49.5 26.7,48.8 26.9 C48.0 27.1,45.4 27.7,44.8 27.7 L44.5 27.8 44.5 25.7 C44.5 24.6,44.6 23.4,44.6 23.1 L44.7 22.6 45.6 22.4 C47.0 22.0,49.4 21.7,50.2 21.8 C50.7 21.8,51.0 21.9,51.2 22.1 M51.5 30.7 C51.5 32.8,51.5 32.9,51.3 32.8 C51.2 32.8,50.7 32.7,50.2 32.7 C49.4 32.6,49.0 32.7,47.4 33.0 C46.4 33.3,45.3 33.5,44.9 33.6 L44.2 33.6 44.3 32.3 C44.4 31.5,44.4 30.6,44.4 30.1 L44.4 29.4 45.3 29.4 C46.1 29.4,50.7 28.7,51.2 28.5 C51.2 28.5,51.3 28.5,51.4 28.4 C51.4 28.4,51.5 29.4,51.5 30.7 M51.4 36.0 C51.4 36.9,51.3 37.9,51.3 38.3 L51.2 38.9 50.4 38.9 C49.7 38.9,48.1 39.1,44.5 39.5 L44.0 39.6 44.1 38.1 C44.1 37.2,44.2 36.3,44.2 35.9 L44.2 35.3 45.7 35.2 C46.7 35.2,48.0 35.0,49.3 34.8 C50.4 34.5,51.3 34.4,51.4 34.4 C51.4 34.4,51.4 35.2,51.4 36.0 "/>
	<path transform="translate(-65,240)" d="M69.9 14.0 C69.8 14.2,69.8 14.5,69.9 15.1 C70.0 15.6,70.1 16.3,70.1 16.6 C70.1 17.1,69.6 20.6,69.6 20.7 C69.6 20.7,68.4 20.9,67.0 21.1 C65.6 21.3,64.4 21.5,64.3 21.6 C64.1 21.7,64.2 22.2,64.5 22.4 C64.8 22.6,65.1 22.6,67.1 22.6 L69.4 22.6 69.3 23.0 C69.0 25.1,68.9 25.6,68.8 25.8 C68.8 25.9,68.4 26.1,67.8 26.2 C66.6 26.4,65.8 26.5,64.7 26.3 C63.7 26.1,63.2 26.2,63.2 26.5 C63.2 26.6,63.4 27.0,63.7 27.4 C64.2 28.3,64.4 28.9,64.7 31.2 C65.1 33.2,65.3 34.0,65.6 34.2 C66.0 34.4,66.6 34.3,66.9 34.1 C67.1 34.0,67.2 34.0,67.3 34.0 C67.3 34.1,67.0 35.3,66.7 36.0 C66.1 37.5,64.9 39.5,63.9 40.6 C63.2 41.4,61.7 42.7,60.8 43.4 C59.6 44.2,59.6 44.4,60.6 44.4 C61.6 44.3,63.3 43.7,64.4 42.9 C66.4 41.6,68.0 39.8,69.2 37.3 C69.6 36.5,70.2 35.6,70.4 35.3 C70.9 34.7,70.8 34.4,70.1 33.7 C69.9 33.5,69.7 33.2,69.7 33.2 C69.7 33.2,70.1 33.1,70.5 33.1 L71.4 33.1 71.5 33.7 C71.7 34.1,71.7 34.7,71.5 36.9 C71.4 39.9,71.4 40.5,71.9 41.5 C73.2 43.9,76.2 45.3,81.6 45.7 C84.6 46.0,86.7 45.8,89.9 45.2 C92.9 44.6,95.4 43.2,95.6 42.0 C95.7 41.6,95.6 41.4,95.2 40.6 C94.9 39.9,94.7 39.5,94.5 38.0 C94.4 37.0,94.2 36.2,94.1 36.1 C94.0 36.0,93.2 36.0,93.0 36.1 C93.0 36.2,92.7 37.0,92.5 37.8 C92.3 38.7,92.0 39.6,91.9 39.9 C91.3 41.1,90.2 41.8,88.0 42.4 C86.1 42.8,84.3 43.0,81.8 42.9 C76.7 42.7,74.5 42.0,74.1 40.1 C73.9 39.4,73.9 36.7,74.1 35.8 C74.2 35.4,74.4 34.8,74.6 34.5 C75.0 33.9,74.9 33.6,74.3 33.1 L73.9 32.8 75.0 32.7 C75.6 32.7,76.1 32.6,76.2 32.6 C76.2 32.5,76.1 32.3,76.0 32.1 L75.7 31.6 76.3 30.0 C77.1 28.0,77.1 28.0,77.9 27.0 C78.2 26.6,78.5 26.2,78.5 26.1 C78.5 25.8,77.7 25.1,76.9 24.8 C75.8 24.4,75.0 24.4,73.4 24.9 C72.7 25.1,72.0 25.3,71.8 25.4 C71.4 25.5,71.4 25.4,71.5 25.2 C71.5 25.0,71.7 24.3,71.8 23.6 C72.0 22.9,72.1 22.2,72.2 22.2 C72.3 22.2,73.1 22.0,74.1 21.9 C76.9 21.4,77.4 21.3,77.1 20.6 C76.8 19.9,74.8 19.6,73.3 20.0 C72.6 20.2,72.6 20.3,73.0 18.6 C73.1 17.7,73.3 17.1,73.6 16.5 C74.0 15.7,74.1 15.6,73.9 15.3 C73.7 14.9,72.9 14.3,72.2 14.0 C71.4 13.7,70.0 13.7,69.9 14.0 M30.9 14.2 C30.6 14.5,30.7 15.0,31.0 16.1 C31.4 17.1,31.4 17.2,31.4 20.6 L31.5 24.1 31.1 24.2 C30.3 24.3,27.5 24.7,26.0 24.9 C25.0 25.0,24.3 25.1,24.2 25.2 C23.9 25.7,24.5 26.3,25.7 26.5 C26.3 26.7,27.9 26.6,30.0 26.4 L30.8 26.4 30.6 26.9 C30.3 27.6,28.9 30.0,28.0 31.4 C26.8 33.3,24.3 36.0,22.4 37.5 C21.3 38.4,21.2 38.6,21.3 38.8 C21.4 39.1,22.2 39.0,23.3 38.5 C26.3 37.1,28.2 35.6,30.1 32.9 C31.0 31.7,31.3 31.4,31.2 32.0 C31.1 32.2,31.1 33.1,31.0 34.1 C30.9 36.1,30.4 40.9,30.2 41.9 C29.9 43.2,29.9 43.4,30.1 44.4 C30.4 45.4,30.8 46.3,31.2 46.4 C31.3 46.5,31.7 46.6,32.0 46.6 C32.4 46.6,32.5 46.5,32.8 46.2 C33.5 45.4,33.5 45.1,33.6 38.1 C33.7 34.5,33.8 31.6,33.8 31.5 C33.9 31.5,34.2 31.8,34.5 32.2 C34.9 32.6,35.4 33.2,35.7 33.5 C36.1 33.9,36.3 34.0,36.8 34.1 C37.6 34.1,38.0 34.0,38.2 33.7 C38.4 33.3,38.3 32.2,38.1 31.8 C37.7 31.0,36.0 29.9,34.5 29.5 C33.7 29.2,33.8 29.4,33.9 27.1 L34.0 25.8 34.8 25.7 C36.1 25.5,38.3 25.0,38.7 24.8 C39.1 24.6,39.1 24.1,38.7 23.8 C38.0 23.1,36.2 22.8,34.9 23.3 C34.5 23.4,34.1 23.5,34.1 23.5 C34.0 23.4,34.5 18.5,34.6 17.7 C34.7 17.2,34.8 16.6,34.9 16.3 C34.9 15.8,34.9 15.7,34.5 15.3 C33.8 14.6,32.5 14.0,31.7 14.0 C31.3 14.0,31.0 14.1,30.9 14.2 M85.5 15.2 C85.3 15.5,85.3 15.5,85.6 16.1 C85.9 17.0,86.0 17.6,86.2 19.0 C86.3 20.6,86.1 33.2,85.9 34.6 C85.8 35.7,85.4 36.7,85.2 36.7 C85.1 36.7,84.6 36.6,84.1 36.4 C83.1 36.0,82.3 35.9,82.1 36.2 C81.9 36.3,82.0 36.5,82.8 37.2 C83.2 37.7,83.9 38.6,84.4 39.2 C84.8 39.8,85.2 40.3,85.4 40.3 C86.3 40.7,87.4 40.2,88.1 39.3 C89.0 37.9,89.1 36.9,89.0 26.5 L89.0 18.1 89.3 17.2 C89.6 16.3,89.5 15.9,89.0 15.5 C88.5 15.2,87.2 14.9,86.3 14.9 C85.8 14.9,85.7 14.9,85.5 15.2 M48.7 20.0 C48.0 20.3,46.5 20.7,44.2 21.2 C42.3 21.5,42.2 21.6,41.6 21.4 C40.8 21.2,39.9 21.2,39.7 21.4 C39.4 21.7,39.4 21.9,39.7 22.6 C40.3 23.9,40.4 25.0,40.3 29.6 C40.2 33.9,39.9 37.1,39.5 39.3 C39.2 41.0,39.4 42.0,40.2 42.9 C40.6 43.2,40.7 43.3,41.1 43.3 C41.8 43.3,42.0 43.1,42.1 42.4 L42.1 41.8 42.9 41.7 C43.3 41.7,44.4 41.6,45.4 41.5 C46.4 41.5,47.5 41.4,47.9 41.3 L48.7 41.3 49.3 42.7 L49.9 44.1 50.6 44.1 L51.4 44.2 52.0 43.5 C52.9 42.6,53.3 41.7,53.4 40.6 C53.4 40.2,53.3 38.5,53.1 37.0 C52.8 33.9,52.7 32.5,52.9 27.4 C52.9 24.4,53.0 23.9,53.5 22.9 C53.7 22.3,53.8 22.1,53.7 21.9 C53.5 21.6,52.1 20.4,51.4 20.1 C50.7 19.7,49.4 19.7,48.7 20.0 M79.7 21.4 C79.6 21.6,79.6 21.8,79.8 22.3 C80.0 22.7,80.1 23.2,80.2 24.2 C80.3 26.1,80.3 28.7,80.1 29.6 C80.0 30.4,80.0 30.5,80.3 31.0 C80.7 31.9,81.0 32.2,81.7 32.1 C82.3 32.1,82.3 32.1,82.6 31.4 C82.9 30.8,82.9 30.7,82.9 29.6 C82.8 28.3,83.0 24.3,83.2 23.2 C83.4 22.1,83.3 21.9,82.4 21.5 C81.7 21.2,81.4 21.1,80.7 21.1 C79.9 21.1,79.8 21.1,79.7 21.4 M49.5 22.4 C49.7 22.7,49.7 22.8,49.8 24.9 L49.8 27.1 48.9 27.0 C48.1 27.0,47.8 27.0,47.1 27.2 C46.3 27.5,43.7 28.0,43.1 28.1 L42.8 28.1 42.8 26.1 C42.8 25.0,42.9 23.8,42.9 23.5 L43.0 22.9 43.9 22.7 C45.3 22.4,47.8 22.1,48.5 22.1 C49.0 22.1,49.3 22.2,49.5 22.4 M74.2 26.8 C74.4 27.0,74.4 27.1,73.9 29.1 L73.4 31.2 72.3 31.3 C71.7 31.3,70.4 31.5,69.4 31.6 C68.3 31.8,67.5 31.9,67.5 31.9 C67.4 31.8,66.9 27.8,67.0 27.8 C67.0 27.8,67.5 27.7,68.0 27.6 C68.5 27.5,70.0 27.3,71.2 27.0 C73.9 26.5,73.9 26.5,74.2 26.8 M49.8 31.0 C49.8 33.1,49.8 33.3,49.6 33.2 C49.5 33.1,49.0 33.1,48.5 33.0 C47.7 33.0,47.3 33.0,45.8 33.4 C44.8 33.6,43.6 33.9,43.2 33.9 L42.6 34.0 42.6 32.6 C42.7 31.9,42.7 30.9,42.7 30.5 L42.7 29.8 43.6 29.8 C44.4 29.8,49.0 29.1,49.5 28.9 C49.6 28.8,49.7 28.8,49.7 28.8 C49.8 28.8,49.8 29.8,49.8 31.0 M49.7 36.4 C49.7 37.3,49.6 38.3,49.6 38.6 L49.5 39.2 48.7 39.2 C48.0 39.2,46.4 39.4,42.9 39.9 L42.3 40.0 42.4 38.4 C42.4 37.6,42.5 36.6,42.5 36.3 L42.5 35.7 44.0 35.6 C45.0 35.6,46.3 35.4,47.6 35.1 C48.7 34.9,49.7 34.7,49.7 34.8 C49.7 34.8,49.7 35.5,49.7 36.4 "/>
</svg>
